{
  "accessors": [
    {
      "bufferView": 2,
      "componentType": 5126,
      "count": 783,
      "max": [
        0.2953999936580658,
        2.1791729927062988,
        0.20134800672531128
      ],
      "min": [
        -0.2953999936580658,
        -2.5804319381713867,
        -0.20134800672531128
      ],
      "type": "VEC3"
    },
    {
      "bufferView": 2,
      "byteOffset": 9396,
      "componentType": 5126,
      "count": 783,
      "max": [
        0.99999856948852539,
        1,
        0.99998593330383301
      ],
      "min": [
        -0.99999856948852539,
        -1,
        -0.99998593330383301
      ],
      "type": "VEC3"
    },
    {
      "bufferView": 3,
      "componentType": 5126,
      "count": 783,
      "max": [
        0.98499339818954468,
        0.99999839067459106,
        0.92432469129562378,
        1
      ],
      "min": [
        -1,
        -0.99999862909317017,
        -0.98119270801544189,
        -1
      ],
      "type": "VEC4"
    },
    {
      "bufferView": 1,
      "componentType": 5126,
      "count": 783,
      "max": [
        0.98581701517105103,
        0.99413800239562988
      ],
      "min": [
        0.027032999321818352,
        0.012272000312805176
      ],
      "type": "VEC2"
    },
    {
      "bufferView": 0,
      "componentType": 5125,
      "count": 4002,
      "max": [
        782
      ],
      "min": [
        0
      ],
      "type": "SCALAR"
    }
  ],
  "asset": {
    "extras": {
      "author": "Teliri (https://sketchfab.com/Teliri)",
      "license": "CC-BY-4.0 (http://creativecommons.org/licenses/by/4.0/)",
      "source": "https://sketchfab.com/models/01db689d606a4cbb879b1fba67b55fa8",
      "title": "Dagger Low poly"
    },
    "generator": "Sketchfab-3.19.6",
    "version": "2.0"
  },
  "bufferViews": [
    {
      "buffer": 0,
      "byteLength": 16008,
      "byteOffset": 0,
      "name": "floatBufferViews",
      "target": 34963
    },
    {
      "buffer": 0,
      "byteLength": 6264,
      "byteOffset": 16008,
      "byteStride": 8,
      "name": "floatBufferViews",
      "target": 34962
    },
    {
      "buffer": 0,
      "byteLength": 18792,
      "byteOffset": 22272,
      "byteStride": 12,
      "name": "floatBufferViews",
      "target": 34962
    },
    {
      "buffer": 0,
      "byteLength": 12528,
      "byteOffset": 41064,
      "byteStride": 16,
      "name": "floatBufferViews",
      "target": 34962
    }
  ],
  "buffers": [
    {
      "byteLength": 53592,
      "uri": "scene.bin"
    }
  ],
  "images": [
    {
      "uri": "textures/Material.001_metallicRoughness.png"
    },
    {
      "uri": "textures/Material.001_normal.jpg"
    },
    {
      "uri": "textures/Material.001_baseColor.jpg"
    }
  ],
  "materials": [
    {
      "doubleSided": false,
      "emissiveFactor": [
        0,
        0,
        0
      ],
      "name": "Material.001",
      "normalTexture": {
        "index": 1,
        "scale": 1,
        "texCoord": 0
      },
      "occlusionTexture": {
        "index": 0,
        "strength": 1,
        "texCoord": 0
      },
      "pbrMetallicRoughness": {
        "baseColorFactor": [
          1,
          1,
          1,
          1
        ],
        "baseColorTexture": {
          "index": 2,
          "texCoord": 0
        },
        "metallicFactor": 0.83197069469999996,
        "metallicRoughnessTexture": {
          "index": 0,
          "texCoord": 0
        },
        "roughnessFactor": 1
      }
    }
  ],
  "meshes": [
    {
      "primitives": [
        {
          "attributes": {
            "NORMAL": 1,
            "POSITION": 0,
            "TANGENT": 2,
            "TEXCOORD_0": 3
          },
          "indices": 4,
          "material": 0,
          "mode": 4
        }
      ]
    }
  ],
  "nodes": [
    {
      "children": [
        1
      ],
      "name": "RootNode (gltf orientation matrix)",
      "rotation": [
        -0.70710678118654746,
        -0,
        -0,
        0.70710678118654757
      ]
    },
    {
      "children": [
        2
      ],
      "name": "RootNode (model correction matrix)"
    },
    {
      "children": [
        3
      ],
      "name": "fce75c4954344f0bab195ba8d93003bb.obj.cleaner.materialmerger.gles"
    },
    {
      "mesh": 0,
      "name": ""
    }
  ],
  "samplers": [
    {
      "magFilter": 9729,
      "minFilter": 9987,
      "wrapS": 10497,
      "wrapT": 10497
    }
  ],
  "scene": 0,
  "scenes": [
    {
      "name": "OSG_Scene",
      "nodes": [
        0
      ]
    }
  ],
  "textures": [
    {
      "sampler": 0,
      "source": 0
    },
    {
      "sampler": 0,
      "source": 1
    },
    {
      "sampler": 0,
      "source": 2
    }
  ]
}

