{
  "accessors": [
    {
      "bufferView": 2,
      "componentType": 5126,
      "count": 144,
      "max": [
        0.74213498830795288,
        1,
        0.77684599161148071
      ],
      "min": [
        -0.74792802333831787,
        0.91917002201080322,
        -0.83244699239730835
      ],
      "type": "VEC3"
    },
    {
      "bufferView": 2,
      "byteOffset": 1728,
      "componentType": 5126,
      "count": 144,
      "max": [
        0.99944901466369629,
        1,
        0.99999397993087769
      ],
      "min": [
        -0.99972665309906006,
        -1,
        -0.99999821186065674
      ],
      "type": "VEC3"
    },
    {
      "bufferView": 3,
      "componentType": 5126,
      "count": 144,
      "max": [
        0.99995571374893188,
        0.99999886751174927,
        0.49602189660072327,
        1
      ],
      "min": [
        -0.93963795900344849,
        -3.0877879453328205e-07,
        -0.99944823980331421,
        1
      ],
      "type": "VEC4"
    },
    {
      "bufferView": 1,
      "componentType": 5126,
      "count": 144,
      "max": [
        0.99949997663497925,
        0.95711398124694824
      ],
      "min": [
        0.0051076197996735573,
        0.00050000002374872565
      ],
      "type": "VEC2"
    },
    {
      "bufferView": 0,
      "componentType": 5125,
      "count": 492,
      "max": [
        143
      ],
      "min": [
        0
      ],
      "type": "SCALAR"
    },
    {
      "bufferView": 2,
      "byteOffset": 3456,
      "componentType": 5126,
      "count": 434,
      "max": [
        0.78280001878738403,
        0.94493597745895386,
        0.83244800567626953
      ],
      "min": [
        -0.78280001878738403,
        -1,
        -0.58829402923583984
      ],
      "type": "VEC3"
    },
    {
      "bufferView": 2,
      "byteOffset": 8664,
      "componentType": 5126,
      "count": 434,
      "max": [
        0.9960552453994751,
        1,
        0.79602968692779541
      ],
      "min": [
        -0.99733924865722656,
        -1,
        -1
      ],
      "type": "VEC3"
    },
    {
      "bufferView": 3,
      "byteOffset": 2304,
      "componentType": 5126,
      "count": 434,
      "max": [
        0.98724460601806641,
        1,
        0.99702858924865723,
        1
      ],
      "min": [
        -1,
        -1,
        -0.9922792911529541,
        1
      ],
      "type": "VEC4"
    },
    {
      "bufferView": 1,
      "byteOffset": 1152,
      "componentType": 5126,
      "count": 434,
      "max": [
        0.98876798152923584,
        0.98417901992797852
      ],
      "min": [
        0.00050000002374872565,
        0.00050000002374872565
      ],
      "type": "VEC2"
    },
    {
      "bufferView": 0,
      "byteOffset": 1968,
      "componentType": 5125,
      "count": 1116,
      "max": [
        433
      ],
      "min": [
        0
      ],
      "type": "SCALAR"
    }
  ],
  "asset": {
    "extras": {
      "author": "3dimentionalben (https://sketchfab.com/3dimentionalben)",
      "license": "CC-BY-4.0 (http://creativecommons.org/licenses/by/4.0/)",
      "source": "https://sketchfab.com/3d-models/low-poly-triangle-side-table-7ff7fcac36c84b968679af528d408497",
      "title": "Low poly triangle side table"
    },
    "generator": "Sketchfab-5.73.1",
    "version": "2.0"
  },
  "bufferViews": [
    {
      "buffer": 0,
      "byteLength": 6432,
      "byteOffset": 0,
      "name": "floatBufferViews",
      "target": 34963
    },
    {
      "buffer": 0,
      "byteLength": 4624,
      "byteOffset": 6432,
      "byteStride": 8,
      "name": "floatBufferViews",
      "target": 34962
    },
    {
      "buffer": 0,
      "byteLength": 13872,
      "byteOffset": 11056,
      "byteStride": 12,
      "name": "floatBufferViews",
      "target": 34962
    },
    {
      "buffer": 0,
      "byteLength": 9248,
      "byteOffset": 24928,
      "byteStride": 16,
      "name": "floatBufferViews",
      "target": 34962
    }
  ],
  "buffers": [
    {
      "byteLength": 34176,
      "uri": "scene.bin"
    }
  ],
  "images": [
    {
      "uri": "textures/Material__3_baseColor.jpeg"
    },
    {
      "uri": "textures/Material__3_metallicRoughness.png"
    },
    {
      "uri": "textures/Material__3_normal.png"
    }
  ],
  "materials": [
    {
      "doubleSided": true,
      "name": "Material__3",
      "normalTexture": {
        "index": 2,
        "scale": 0.61147103660000002,
        "texCoord": 0
      },
      "occlusionTexture": {
        "index": 1,
        "strength": 1,
        "texCoord": 0
      },
      "pbrMetallicRoughness": {
        "baseColorFactor": [
          1,
          1,
          1,
          1
        ],
        "baseColorTexture": {
          "index": 0,
          "texCoord": 0
        },
        "metallicFactor": 1,
        "metallicRoughnessTexture": {
          "index": 1,
          "texCoord": 0
        },
        "roughnessFactor": 1
      }
    }
  ],
  "meshes": [
    {
      "name": "defaultMaterial",
      "primitives": [
        {
          "attributes": {
            "NORMAL": 1,
            "POSITION": 0,
            "TANGENT": 2,
            "TEXCOORD_0": 3
          },
          "indices": 4,
          "material": 0,
          "mode": 4
        }
      ]
    },
    {
      "name": "defaultMaterial",
      "primitives": [
        {
          "attributes": {
            "NORMAL": 6,
            "POSITION": 5,
            "TANGENT": 7,
            "TEXCOORD_0": 8
          },
          "indices": 9,
          "material": 0,
          "mode": 4
        }
      ]
    }
  ],
  "nodes": [
    {
      "children": [
        1
      ],
      "name": "RootNode (gltf orientation matrix)",
      "rotation": [
        -0.70710678118654746,
        -0,
        -0,
        0.70710678118654757
      ]
    },
    {
      "children": [
        2
      ],
      "name": "RootNode (model correction matrix)"
    },
    {
      "children": [
        3,
        5
      ],
      "matrix": [
        1,
        0,
        0,
        0,
        0,
        -4.3711390063094768e-08,
        0.999999999999999,
        0,
        0,
        -0.999999999999999,
        -4.3711390063094768e-08,
        0,
        0,
        0,
        0,
        1
      ],
      "name": "Collada visual scene group"
    },
    {
      "children": [
        4
      ],
      "name": "turri"
    },
    {
      "mesh": 0,
      "name": "defaultMaterial"
    },
    {
      "children": [
        6
      ],
      "name": "turri"
    },
    {
      "mesh": 1,
      "name": "defaultMaterial"
    }
  ],
  "samplers": [
    {
      "magFilter": 9729,
      "minFilter": 9987,
      "wrapS": 10497,
      "wrapT": 10497
    }
  ],
  "scene": 0,
  "scenes": [
    {
      "name": "OSG_Scene",
      "nodes": [
        0
      ]
    }
  ],
  "textures": [
    {
      "sampler": 0,
      "source": 0
    },
    {
      "sampler": 0,
      "source": 1
    },
    {
      "sampler": 0,
      "source": 2
    }
  ]
}

